<svg width="360" height="536" viewBox="0 0 360 536" fill="none" xmlns="http://www.w3.org/2000/svg">
<path d="M336.804 375.181C277.789 510.506 120.041 572.262 -15.5228 513.143C-151.087 454.024 -213.165 296.403 -154.15 161.078C-150.116 151.828 -145.625 142.929 -140.737 134.433C-79.3603 123.638 7.67261 118.242 134.114 148.926C199.448 164.847 277.008 217.489 269.54 234.613C262.645 250.424 180.658 272.687 77.8252 216.833L136.839 175.142C126.088 167.33 77.2253 156.954 49.3122 177.733C-9.11517 218.079 -78.888 288.03 -38.5915 318.136L38.5147 252.984C75.1116 262.696 225.781 320.517 208.529 360.077C191.276 399.638 72.1173 388.396 12.3337 367.01C-31.0704 351.205 -90.2496 328.521 -137.929 268.529C-183.067 328.805 -127.267 384.528 -83.5231 406.728C-43.7548 427.195 29.7791 453.015 127.358 445.399C169.72 441.893 231.833 421.972 248.253 391.496C266.962 355.77 233.19 314.377 204.992 292.67C232.198 295.126 304.784 290.743 319.147 257.808C333.51 224.873 301.173 162.163 190.298 113.811C79.4231 65.4583 -22.4492 54.4788 -71.363 55.5089C3.3314 -1.40016 105.926 -17.1907 198.204 23.0516C333.768 82.1704 395.833 239.823 336.818 375.149L336.804 375.181Z" fill="#2B2B2B"/>
</svg>
