<svg width="114" height="116" viewBox="0 0 114 116" fill="none" xmlns="http://www.w3.org/2000/svg">
<g clip-path="url(#clip0_365_32)">
<path d="M87.7335 71.4134C80.273 88.5209 60.331 96.3278 43.1934 88.8542C26.0559 81.3805 18.2081 61.4546 25.6686 44.3472C26.1785 43.1778 26.7463 42.0529 27.3642 40.9788C35.1233 39.6142 46.1257 38.932 62.11 42.811C70.3694 44.8237 80.1742 51.4785 79.2302 53.6432C78.3585 55.6421 67.9941 58.4566 54.9942 51.3956L62.4545 46.1252C61.0954 45.1376 54.9184 43.8259 51.3897 46.4527C44.0035 51.5532 35.183 60.3961 40.2772 64.202L50.0247 55.9657C54.6512 57.1935 73.6983 64.503 71.5173 69.5041C69.3364 74.5053 54.2726 73.084 46.715 70.3805C41.228 68.3825 33.7467 65.5149 27.7192 57.9309C22.0131 65.5507 29.0671 72.5951 34.5971 75.4016C39.6244 77.9889 48.9204 81.2531 61.256 80.2903C66.6113 79.847 74.4634 77.3287 76.5391 73.4759C78.9043 68.9596 74.635 63.7268 71.0702 60.9827C74.5096 61.2931 83.6856 60.7391 85.5013 56.5755C87.3171 52.412 83.2292 44.4844 69.2127 38.3718C55.1962 32.2593 42.3178 30.8713 36.1343 31.0015C45.5769 23.8073 58.5466 21.8111 70.2121 26.8984C87.3497 34.372 95.1957 54.302 87.7352 71.4094L87.7335 71.4134Z" fill="#F3CF47"/>
<path d="M79.2226 93.8944L78.61 92.9097C85.7137 88.4902 91.2433 82.0937 94.596 74.4059C101.928 57.5938 97.1464 37.7049 82.9694 26.0421L83.7059 25.1497C98.2804 37.14 103.194 57.5876 95.6562 74.8731C92.21 82.7753 86.5278 89.3557 79.2208 93.8985L79.2226 93.8944Z" fill="#040707"/>
<path d="M14.9852 65.8809C13.3424 57.4352 14.2984 48.7937 17.7445 40.8915C25.2827 23.606 43.6106 13.2941 62.3142 15.8162L62.1613 16.9632C43.9665 14.5136 26.1382 24.5425 18.8065 41.3546C15.4539 49.0424 14.5248 57.4452 16.1236 65.6598L14.9852 65.8809Z" fill="#040707"/>
<path d="M65.3741 14.0972L67.2975 14.5652C68.3485 14.8212 68.8116 15.4518 68.6006 16.3229C68.4383 16.9938 68.0248 17.2228 67.6386 17.2566C68.0162 17.508 68.3742 17.9482 68.1845 18.7372L68.1792 18.7493C67.93 19.7964 67.0956 20.1501 65.9704 19.8761L64.0812 19.4182L65.3683 14.0995L65.3741 14.0972ZM66.5216 16.5769C67.0369 16.7005 67.205 16.5474 67.3037 16.133L67.3072 16.1249C67.4095 15.7024 67.2534 15.485 66.8262 15.3806L66.4372 15.288L66.1447 16.4896L66.5157 16.5791L66.5216 16.5769ZM65.5757 18.8564L66.025 18.9656C66.4522 19.0701 66.7223 18.9374 66.8572 18.3847L66.8625 18.3725C66.9886 17.84 66.8666 17.5556 66.3072 17.4224L65.9443 17.3364L65.574 18.8604L65.5757 18.8564Z" fill="#040707"/>
<path d="M72.7156 19.6203L70.9987 18.9776L70.5306 20.2278L72.4717 20.9539L71.9739 21.83L68.938 20.6939L70.855 15.568L73.8949 16.7058L73.5395 17.6536L71.7438 16.9813L71.3483 18.032L73.0652 18.6748L72.7133 19.6145L72.7156 19.6203Z" fill="#040707"/>
<path d="M77.0198 21.7188L75.3859 20.8859L74.78 22.076L76.6276 23.0166L76.0355 23.8323L73.1461 22.3603L75.6346 17.4836L78.524 18.9556L78.0649 19.8534L76.3597 18.9846L75.8508 19.9858L77.4847 20.8188L77.0274 21.7125L77.0198 21.7188Z" fill="#040707"/>
<path d="M77.4685 23.7541L81.2854 21.8935L79.6512 20.7956L80.2162 19.9536L83.0636 21.8648L82.5648 22.6104L78.9071 24.4489L80.6807 25.6365L79.9839 26.3825L77.0318 24.4016L77.4703 23.7501L77.4685 23.7541Z" fill="#040707"/>
<path d="M18.3148 66.9624L18.7933 68.6639C19.0476 69.5742 18.7744 70.3556 17.7912 70.6299L17.7872 70.6282C16.8022 70.9066 16.1645 70.4551 15.8761 69.424L15.7418 68.9464L13.8691 69.4685L13.5397 68.2991L18.3148 66.9624ZM16.5628 68.7121L16.6556 69.0415C16.7773 69.4702 17.013 69.5826 17.4636 69.4565L17.4717 69.46C17.9182 69.3321 18.0347 69.065 17.9368 68.7142L17.8367 68.3575L16.5628 68.7121Z" fill="#040707"/>
<path d="M18.4588 76.0019L16.6235 76.8919L16.0945 75.804L20.5545 73.6412L21.3521 75.2748C21.8099 76.2161 21.6231 76.9099 20.8163 77.2997C20.1911 77.605 19.7448 77.4007 19.5006 77.1641C19.5287 77.6195 19.3359 77.9399 18.6892 78.2502L18.535 78.3274C18.039 78.5686 17.774 78.7228 17.5852 78.8571L17.0653 77.7925C17.2159 77.6463 17.6008 77.4385 18.031 77.2264L18.1835 77.1532C18.7219 76.892 18.8049 76.7018 18.5891 76.2562L18.4669 76.0055L18.4588 76.0019ZM19.2138 75.6425L19.3451 75.9165C19.5563 76.3505 19.7833 76.4495 20.2175 76.2392C20.586 76.0579 20.6808 75.8296 20.496 75.4456L20.325 75.0966L19.2057 75.639L19.2138 75.6425Z" fill="#040707"/>
<path d="M24.1753 84.2108L24.124 84.251C22.6801 85.3164 21.7286 85.3301 20.933 84.256C20.1928 83.2541 20.4825 82.3355 21.9399 81.2614L21.9912 81.2212C23.3914 80.1897 24.3633 80.262 25.0949 81.2504C25.8478 82.2674 25.5429 83.1987 24.1713 84.209L24.1753 84.2108ZM22.7522 82.2417L22.695 82.2842C21.7425 82.9861 21.3965 83.4034 21.6609 83.7595C21.9403 84.1366 22.3989 83.9369 23.3817 83.2097L23.4388 83.1672C24.3552 82.4929 24.6527 82.1315 24.3774 81.7562C24.1107 81.3943 23.6493 81.5783 22.7539 82.2377L22.7522 82.2417Z" fill="#040707"/>
<path d="M28.6428 85.5813L29.7775 86.6299C30.8227 87.5962 30.7396 88.5279 29.6386 89.714L29.603 89.7515C28.4325 91.0084 27.4606 91.2347 26.3756 90.227L25.2762 89.2082L28.6469 85.583L28.6428 85.5813ZM26.7506 89.4225L26.9336 89.589C27.3731 89.9974 27.7704 89.8384 28.6693 88.8724L28.7125 88.8286C29.4654 88.0204 29.6034 87.6375 29.1495 87.2181L28.9642 87.0458L26.7564 89.4202L26.7506 89.4225Z" fill="#040707"/>
<path d="M35.2371 90.9033L33.3935 93.8363C33.2184 94.1163 33.0869 94.4731 33.4762 94.7199C33.851 94.9556 34.0943 94.7295 34.297 94.4085L36.1423 91.4714L37.1829 92.1275L35.354 95.038C34.8302 95.8739 34.0614 96.1213 32.9902 95.4471C31.9109 94.7693 31.8427 94.0076 32.3775 93.1573L34.2029 90.2548L35.2411 90.9051L35.2371 90.9033Z" fill="#040707"/>
<path d="M42.5574 98.2999L42.5539 98.308C42.3651 98.7409 41.765 99.7409 40.3512 99.1773C38.9496 98.6191 39.0461 97.568 39.6121 96.1486L39.6403 96.0838C40.2846 94.4626 41.1413 93.9694 42.3003 94.4314C43.6532 94.9685 43.4622 95.9928 43.2647 96.5231L43.2612 96.5312L42.1306 96.0815L42.1359 96.0694C42.2238 95.8236 42.376 95.4083 41.9555 95.2442C41.5408 95.0778 41.2605 95.4661 40.8241 96.5664L40.7941 96.6352C40.4207 97.5799 40.2459 98.202 40.6889 98.3808C41.0996 98.5454 41.3005 98.1177 41.4198 97.8664L41.4233 97.8583L42.5579 98.3097L42.5574 98.2999Z" fill="#040707"/>
<path d="M47.98 97.2263L46.9189 97.0043L47.1028 96.1069L50.4199 96.7974L50.236 97.6948L49.179 97.4747L48.3618 101.428L47.1668 101.182L47.984 97.228L47.98 97.2263Z" fill="#040707"/>
<path d="M55.2884 97.2495L55.0367 102.196L53.8158 102.131L54.0715 97.1859L55.2925 97.2513L55.2884 97.2495Z" fill="#040707"/>
<path d="M63.0872 99.2443L63.0926 99.3093C63.2885 101.095 62.8275 101.919 61.5009 102.063C60.2608 102.197 59.6129 101.481 59.4165 99.6854L59.4111 99.6204C59.2201 97.8902 59.7715 97.0904 60.9919 96.958C62.2477 96.8219 62.9041 97.5512 63.0912 99.2461L63.0872 99.2443ZM60.6704 99.4762L60.6781 99.5469C60.8079 100.721 60.9954 101.231 61.4362 101.183C61.9027 101.131 61.9595 100.635 61.8236 99.4204L61.8159 99.3496C61.6905 98.2211 61.5265 97.7787 61.0641 97.8323C60.6192 97.8791 60.5461 98.3673 60.6664 99.4744L60.6704 99.4762Z" fill="#040707"/>
<path d="M67.9636 100.817L66.5179 96.079L67.8019 95.6902C69.2888 97.6678 69.6667 98.1842 69.7845 98.3896L69.802 98.3828C69.5696 97.8095 69.3209 97.0413 69.0952 96.2976L68.8149 95.3807L69.8493 95.0661L71.295 99.8044L70.0326 100.188C68.4498 98.0098 68.113 97.521 67.9881 97.3317L67.9666 97.3368C68.1805 97.8972 68.4608 98.737 68.6966 99.5237L68.9941 100.501L67.9537 100.818L67.9636 100.817Z" fill="#040707"/>
<path d="M75.9551 96.2648L75.9632 96.2684C76.1737 96.6154 76.4256 96.8119 76.7686 96.634C77.1039 96.4624 77.106 96.2033 76.9716 95.9472C76.8085 95.6353 76.5461 95.5401 75.829 95.5694C74.788 95.6114 74.3001 95.4468 73.9666 94.7957C73.5825 94.0503 73.8294 93.296 74.7813 92.8057C75.9125 92.2251 76.5541 92.712 76.9074 93.3621L76.9114 93.3638L75.8594 93.9067L75.8553 93.905C75.6834 93.6133 75.4787 93.3747 75.151 93.54C74.8948 93.6739 74.8564 93.8835 74.9885 94.1337C75.1211 94.3938 75.303 94.4635 75.9586 94.4315C77.0624 94.3784 77.6246 94.5272 78.0105 95.2686C78.3814 95.9889 78.2171 96.8082 77.1342 97.3665C75.9645 97.9689 75.2884 97.5392 74.8838 96.8186L74.8798 96.8168L75.9568 96.2608L75.9551 96.2648Z" fill="#040707"/>
</g>
<defs>
<clipPath id="clip0_365_32">
<rect width="85" height="89" fill="white" transform="translate(35.5767) rotate(23.5618)"/>
</clipPath>
</defs>
</svg>
