<?xml version="1.0" standalone="no"?>
<!DOCTYPE svg PUBLIC "-//W3C//DTD SVG 20010904//EN"
 "http://www.w3.org/TR/2001/REC-SVG-20010904/DTD/svg10.dtd">
<svg version="1.0" xmlns="http://www.w3.org/2000/svg"
 width="300.000000pt" height="78.000000pt" viewBox="0 0 300.000000 78.000000"
 preserveAspectRatio="xMidYMid meet">
<metadata>
Created by potrace 1.10, written by Peter Selinger 2001-2011
</metadata>
<g transform="translate(0.000000,78.000000) scale(0.050000,-0.050000)"
fill="#000000" stroke="none">
<path d="M1041 1530 c-654 -100 -1041 -344 -1041 -656 0 -117 9 -117 175 3
549 395 1444 594 1760 391 145 -93 -293 -301 -600 -284 l-113 6 71 116 c80
130 78 144 -20 126 -241 -45 -523 -616 -388 -787 40 -50 69 -21 155 155 105
214 95 210 478 196 383 -14 513 -100 368 -244 -223 -224 -843 -314 -1240 -181
-81 27 -151 49 -156 49 -23 0 -8 -147 20 -200 76 -146 234 -210 520 -209 812
2 1485 669 878 870 l-73 24 108 57 c607 328 7 706 -902 568z"/>
<path d="M4555 1059 c-270 -28 -300 -52 -484 -379 -246 -435 -470 -585 -633
-422 -153 154 91 659 308 638 143 -14 40 -200 -160 -289 -162 -71 -184 -137
-41 -122 402 42 624 492 269 545 -232 35 -479 -119 -680 -425 -255 -388 -512
-515 -620 -305 -95 185 144 614 332 596 153 -15 31 -218 -175 -292 -133 -47
-166 -124 -54 -124 361 0 650 439 353 536 -326 107 -797 -269 -797 -635 1
-429 507 -514 807 -137 l90 114 11 -66 c41 -235 283 -349 550 -259 134 46 311
227 439 452 239 416 226 406 537 433 360 31 374 3 78 -158 -920 -501 -846
-766 204 -734 713 22 870 86 1058 432 76 140 69 141 -181 36 -675 -282 -1551
-423 -1384 -221 36 43 297 216 703 465 377 231 403 264 236 300 -144 31 -563
42 -766 21z"/>
</g>
</svg>
