<?xml version="1.0" encoding="utf-8"?>
<svg width="131" height="34" viewBox="0 0 131 34" fill="none" xmlns="http://www.w3.org/2000/svg">
  <path d="M39.8337 14.1962C42.1638 13.422 47.9892 10.4518 47.9892 7.22835C47.9892 4.00489 43.0712 0 32.1935 0C19.5048 0 9.66516 3.74441 6.94302 5.41945C3.57847 7.61545 -1.34315 10.3252 0.34094 17.4233C4.74354 14.1962 11.8646 7.87231 28.8254 4.90572C34.7814 3.87465 43.0676 5.42307 43.0676 7.09811C43.0676 8.64652 37.1115 13.422 26.6222 12.5176L29.9904 6.96787C28.8254 6.711 24.4228 7.61183 22.8693 10.3252C19.5011 15.7446 16.2672 24.0077 20.6698 25.0387L24.6841 16.9096C28.0523 16.3922 42.5522 15.7482 42.5522 19.6193C42.5522 23.4903 32.3242 26.8476 26.6259 27.2347C22.481 27.4916 16.7863 27.7521 10.6996 24.525C9.14614 31.1058 15.7482 33.6889 20.1508 33.9457C24.1651 34.2026 31.1555 33.6889 38.9263 29.5574C42.2945 27.7521 46.6934 23.8774 46.9548 20.7806C47.2125 17.1664 42.9405 14.974 39.8337 14.1998V14.1962Z" style="fill: rgb(0, 0, 0);"/>
  <path d="M130.989 21.222C130.731 21.0917 128.271 22.253 127.106 22.7704C119.596 25.9974 107.811 30.1253 96.418 30.1253C95.2529 30.1253 94.2185 29.0943 96.937 26.8983C99.6555 24.7059 116.359 14.7678 117.785 13.7331C118.819 12.9589 118.819 11.9279 117.139 11.5408C112.348 10.2492 101.47 10.3794 96.0333 11.4105C93.3148 11.9279 92.2767 13.346 91.373 14.8944C90.5963 16.186 89.5619 18.1215 87.6164 21.4752C83.6022 28.4431 79.4573 30.3822 76.8695 29.608C74.4086 28.8338 72.4669 26.2507 74.67 21.3486C76.8695 16.4429 80.107 14.2505 81.7911 14.2505C83.4752 14.2505 83.9906 15.9291 82.5678 17.6078C80.7567 19.6735 79.0726 20.8349 76.3541 21.3522L75.189 23.5446C82.3101 24.1885 86.1937 18.5122 86.7127 17.6078C87.2317 16.7033 88.9122 12.315 83.4752 11.5408C77.9075 10.6363 71.3054 15.1549 68.0679 21.3486C65.7377 25.8672 61.4658 29.7382 57.5786 29.608C55.3791 29.4778 52.9183 26.6378 55.1178 21.3486C56.9289 17.0904 60.1664 14.2505 61.9812 14.2505C63.2769 14.2505 64.8304 15.4118 63.0156 17.6078C61.0738 20.0606 59.132 20.8349 56.4135 21.3522L55.3791 23.5446C62.5002 24.1885 66.3838 19.2864 67.0335 17.6078C67.4218 16.7033 69.1059 12.0581 63.5383 11.5408C58.1012 11.0234 50.9801 14.8981 48.258 21.3486C45.5395 27.9293 49.2924 33.9964 55.3791 33.9964C61.0774 33.9964 65.3494 29.2209 67.0335 25.737C67.0335 30.6427 70.271 33.9964 75.1926 33.9964C84.5168 33.9964 88.1391 24.4454 93.0607 16.186C93.4491 15.542 94.6141 14.7678 96.6866 14.3807C98.8861 13.9936 103.808 13.7368 103.808 13.7368C106.269 13.6065 108.341 13.867 106.526 15.1549C104.842 16.3162 98.759 18.6389 90.8576 24.7059C89.0465 26.1241 87.4894 28.4503 89.1735 30.6427C92.93 35.5484 115.977 33.3524 121.157 32.0609C127.632 30.3822 131.258 21.4788 130.996 21.2183L130.989 21.222Z" style="fill: rgb(0, 0, 0);"/>
</svg>