<svg width="18" height="18" viewBox="0 0 18 18" fill="none" xmlns="http://www.w3.org/2000/svg">
<path d="M9 3C9.79565 3 10.5587 3.31607 11.1213 3.87868C11.6839 4.44129 12 5.20435 12 6C12 6.79565 11.6839 7.55871 11.1213 8.12132C10.5587 8.68393 9.79565 9 9 9C8.20435 9 7.44129 8.68393 6.87868 8.12132C6.31607 7.55871 6 6.79565 6 6C6 5.20435 6.31607 4.44129 6.87868 3.87868C7.44129 3.31607 8.20435 3 9 3ZM9 4.5C8.60218 4.5 8.22064 4.65804 7.93934 4.93934C7.65804 5.22064 7.5 5.60218 7.5 6C7.5 6.39782 7.65804 6.77936 7.93934 7.06066C8.22064 7.34196 8.60218 7.5 9 7.5C9.39782 7.5 9.77936 7.34196 10.0607 7.06066C10.342 6.77936 10.5 6.39782 10.5 6C10.5 5.60218 10.342 5.22064 10.0607 4.93934C9.77936 4.65804 9.39782 4.5 9 4.5ZM9 9.75C11.0025 9.75 15 10.7475 15 12.75V15H3V12.75C3 10.7475 6.9975 9.75 9 9.75ZM9 11.175C6.7725 11.175 4.425 12.27 4.425 12.75V13.575H13.575V12.75C13.575 12.27 11.2275 11.175 9 11.175Z" fill="#05DF72"/>
</svg>
