<svg width="17" height="17" viewBox="0 0 17 17" fill="none" xmlns="http://www.w3.org/2000/svg">
<g clip-path="url(#clip0_242_35)">
<path fill-rule="evenodd" clip-rule="evenodd" d="M6.81699 0.42627C8.46414 0.42627 9.79946 1.76154 9.79946 3.4087C9.79946 5.00097 8.5517 6.30182 6.98064 6.38674L6.81699 6.39117C5.16984 6.39117 3.83452 5.05589 3.83452 3.4087C3.83452 1.81647 5.08228 0.515583 6.65334 0.430663L6.81699 0.42627ZM0.852051 15.7646H8.3531C8.04824 15.2378 7.84051 14.6606 7.73981 14.0603H2.55632V12.6969L2.56076 12.5315C2.64292 10.9991 3.85952 9.79968 5.32573 9.79968H8.3082L8.4643 9.80423C8.61645 9.81314 8.76548 9.83495 8.91039 9.86862C9.34125 9.36938 9.86427 8.95785 10.4509 8.65653C9.81456 8.2988 9.08447 8.09544 8.3082 8.09544H5.32573L5.14136 8.09928C2.75612 8.19874 0.852051 10.2191 0.852051 12.6969V15.7646ZM5.53879 3.4087C5.53879 2.70278 6.11107 2.1305 6.81699 2.1305C7.52291 2.1305 8.09518 2.70278 8.09518 3.4087C8.09518 4.11462 7.52291 4.68689 6.81699 4.68689C6.11107 4.68689 5.53879 4.11462 5.53879 3.4087ZM10.2775 16.6552L12.7819 15.1255L15.2862 16.6552L14.6054 13.8007L16.834 11.8916L13.9089 11.6571L12.7819 8.94756L11.6549 11.6571L8.72977 11.8916L10.9584 13.8007L10.2775 16.6552Z" fill="black"/>
</g>
<defs>
<clipPath id="clip0_242_35">
<rect width="17" height="17" fill="white"/>
</clipPath>
</defs>
</svg>
