<svg width="26" height="26" viewBox="0 0 26 26" fill="none" xmlns="http://www.w3.org/2000/svg">
<path d="M18.3333 13C18.3333 15.9455 15.9455 18.3333 13 18.3333C10.0545 18.3333 7.66667 15.9455 7.66667 13C7.66667 10.0545 10.0545 7.66667 13 7.66667C15.9455 7.66667 18.3333 10.0545 18.3333 13ZM18.3333 13V15C18.3333 16.8409 19.8257 18.3333 21.6667 18.3333C23.5076 18.3333 25 16.8409 25 15V13C25 6.37259 19.6275 1 13 1C6.37259 1 1 6.37259 1 13C1 19.6275 6.37259 25 13 25H18.3333" stroke="black" stroke-width="2" stroke-linecap="round" stroke-linejoin="round"/>
</svg>
