<svg width="17" height="17" viewBox="0 0 17 17" fill="none" xmlns="http://www.w3.org/2000/svg">
<g clip-path="url(#clip0_242_42)">
<path d="M12.9524 9.5L14.5714 11.1V14.9C14.5714 15.34 14.413 15.7168 14.0962 16.0304C13.7794 16.344 13.3982 16.5005 12.9524 16.5H1.61905C1.17381 16.5 0.792794 16.3435 0.476 16.0304C0.159206 15.7173 0.000539683 15.3405 0 14.9V3.7C0 3.26 0.158667 2.88347 0.476 2.5704C0.793333 2.25733 1.17435 2.10053 1.61905 2.1H6.07143C5.96349 2.34 5.88254 2.5968 5.82857 2.8704C5.7746 3.144 5.73413 3.42053 5.70714 3.7H1.61905V14.9H12.9524V9.5ZM14.0048 6.02L16.5952 8.58L15.4619 9.7L12.8714 7.14C12.5881 7.3 12.2845 7.43333 11.9607 7.54C11.6369 7.64667 11.2929 7.7 10.9286 7.7C9.91667 7.7 9.05668 7.34987 8.34862 6.6496C7.64056 5.94933 7.28625 5.09947 7.28571 4.1C7.28517 3.10053 7.63948 2.25067 8.34862 1.5504C9.05776 0.850133 9.91775 0.5 10.9286 0.5C11.9394 0.5 12.7997 0.850133 13.5093 1.5504C14.219 2.25067 14.573 3.10053 14.5714 4.1C14.5714 4.46 14.5175 4.8 14.4095 5.12C14.3016 5.44 14.1667 5.74 14.0048 6.02ZM10.9286 6.1C11.4952 6.1 11.9742 5.90667 12.3655 5.52C12.7567 5.13333 12.9524 4.66 12.9524 4.1C12.9524 3.54 12.7567 3.06667 12.3655 2.68C11.9742 2.29333 11.4952 2.1 10.9286 2.1C10.3619 2.1 9.88294 2.29333 9.49167 2.68C9.1004 3.06667 8.90476 3.54 8.90476 4.1C8.90476 4.66 9.1004 5.13333 9.49167 5.52C9.88294 5.90667 10.3619 6.1 10.9286 6.1ZM1.61905 9.5V14.9V3.7V9.3V9.06V9.5Z" fill="black"/>
</g>
<defs>
<clipPath id="clip0_242_42">
<rect width="17" height="16" fill="white" transform="translate(0 0.5)"/>
</clipPath>
</defs>
</svg>
