<svg width="94" height="94" viewBox="0 0 94 94" fill="none" xmlns="http://www.w3.org/2000/svg">
<g clip-path="url(#clip0_350_41)">
<path d="M83.7188 12.3375C82.7088 11.6841 81.5537 11.2888 80.3552 11.1863C79.1566 11.0839 77.9512 11.2775 76.845 11.75L40.5962 26.0262C39.7381 26.3755 38.8203 26.5551 37.8937 26.555H14.6875C12.7398 26.555 10.8719 27.3287 9.49468 28.7059C8.11746 30.0831 7.34375 31.9511 7.34375 33.8987V34.4862H0V52.1112H7.34375V52.875C7.38977 54.792 8.18375 56.6149 9.55602 57.9542C10.9283 59.2936 12.77 60.043 14.6875 60.0425L23.5 78.725C24.0967 79.9831 25.0362 81.0474 26.2105 81.7956C27.3848 82.5438 28.7464 82.9457 30.1388 82.955H33.84C35.7775 82.9395 37.6303 82.1589 38.9949 80.7834C40.3594 79.4079 41.1251 77.5488 41.125 75.6112V60.7475L76.845 75.0237C77.7236 75.3734 78.6606 75.5528 79.6063 75.5525C81.0733 75.5288 82.5019 75.0798 83.7188 74.26C84.685 73.6076 85.4821 72.7344 86.044 71.7128C86.6059 70.6912 86.9165 69.5505 86.95 68.385V18.3887C86.9446 17.1933 86.6475 16.0172 86.0844 14.9626C85.5213 13.9081 84.7092 13.0069 83.7188 12.3375ZM33.7812 33.8987V52.875H14.6875V33.8987H33.7812ZM33.7812 75.6112H30.08L22.8538 60.0425H33.7812V75.6112ZM43.2987 53.7562C42.6012 53.3998 41.8739 53.1049 41.125 52.875V33.4875C41.8667 33.3345 42.5939 33.1183 43.2987 32.8412L79.6063 18.3887V68.2087L43.2987 53.7562ZM87.1262 35.955V50.6425C89.0739 50.6425 90.9418 49.8688 92.3191 48.4916C93.6963 47.1143 94.47 45.2464 94.47 43.2987C94.47 41.3511 93.6963 39.4831 92.3191 38.1059C90.9418 36.7287 89.0739 35.955 87.1262 35.955Z" fill="#868686"/>
</g>
<defs>
<clipPath id="clip0_350_41">
<rect width="94" height="94" fill="white"/>
</clipPath>
</defs>
</svg>
