<svg width="72" height="73" viewBox="0 0 72 73" fill="none" xmlns="http://www.w3.org/2000/svg">
<path d="M67.7241 14.6207L67.8759 14.7724C69.5448 17.2 70.3035 20.0827 69.8483 22.8138C69.5448 25.5448 68.0276 28.1241 65.6 29.9448L20.8414 63.6276L9.15862 63.7793C8.4 63.7793 7.64138 63.6276 6.88276 63.1724C6.12414 62.8689 5.51724 62.4138 5.06207 61.6552C4.6069 61.0483 4.15172 60.2896 4 59.531C4 58.7724 4 58.0138 4.30345 57.1034L7.64138 46.0276L52.4 12.3448C54.8276 10.5241 57.7103 9.91721 60.4414 10.3724C63.3241 10.6758 65.9034 12.1931 67.7241 14.6207ZM53.1586 18.5655L59.9862 27.5172L62.4138 25.6965C63.6276 24.7862 64.3862 23.4207 64.5379 22.0551C64.6897 20.6896 64.3862 19.1724 63.4759 17.9586L63.3241 17.8069C62.4138 16.5931 61.2 15.8345 59.6828 15.6827C58.3172 15.3793 56.9517 15.8345 55.7379 16.5931L53.1586 18.5655ZM55.7379 30.7034L48.9103 21.7517L15.6828 46.7862L22.3586 55.7379L55.7379 30.7034ZM17.6552 58.3172L11.8897 50.5793L9.46207 58.4689L17.6552 58.3172Z" fill="#868686"/>
</svg>
