<svg width="20" height="20" viewBox="0 0 20 20" fill="none" xmlns="http://www.w3.org/2000/svg">
<path d="M0 5.8335H1.66667V7.50016H0V5.8335ZM3.33333 9.16683H1.66667V7.50016H3.33333V9.16683ZM6.66667 10.8335V9.16683H3.33333V10.8335H1.66667V12.5002H3.33333V10.8335H6.66667ZM13.3333 10.8335H6.66667V12.5002H5V14.1668H6.66667V12.5002H13.3333V14.1668H15V12.5002H13.3333V10.8335ZM16.6667 9.16683H13.3333V10.8335H16.6667V12.5002H18.3333V10.8335H16.6667V9.16683ZM18.3333 7.50016V9.16683H16.6667V7.50016H18.3333ZM18.3333 7.50016V5.8335H20V7.50016H18.3333Z" fill="black"/>
</svg>
