<svg width="20" height="20" viewBox="0 0 20 20" fill="none" xmlns="http://www.w3.org/2000/svg">
<path d="M13.3332 9.1665V10.8332H12.4998V11.6665H11.6665V12.4998H10.8332V13.3332H9.1665V12.4998H8.33317V11.6665H7.49984V10.8332H6.6665V9.1665H8.33317V8.33317H9.1665V6.6665H10.8332V7.49984H11.6665V8.33317H12.4998V9.1665H13.3332Z" fill="black"/>
<path d="M18.3335 9.1665V7.49984H17.5002V6.6665H16.6668V5.83317H15.8335V4.99984H14.1668V4.1665H5.8335V4.99984H4.16683V5.83317H3.3335V6.6665H2.50016V7.49984H1.66683V9.1665H0.833496V10.8332H1.66683V12.4998H2.50016V13.3332H3.3335V14.1665H4.16683V14.9998H5.8335V15.8332H14.1668V14.9998H15.8335V14.1665H16.6668V13.3332H17.5002V12.4998H18.3335V10.8332H19.1668V9.1665H18.3335ZM15.0002 10.8332H14.1668V12.4998H13.3335V13.3332H12.5002V14.1665H10.8335V14.9998H9.16683V14.1665H7.50016V13.3332H6.66683V12.4998H5.8335V10.8332H5.00016V9.1665H5.8335V7.49984H6.66683V6.6665H7.50016V5.83317H9.16683V4.99984H10.8335V5.83317H12.5002V6.6665H13.3335V7.49984H14.1668V9.1665H15.0002V10.8332Z" fill="black"/>
</svg>
