<svg width="60" height="66" viewBox="0 0 60 66" fill="none" xmlns="http://www.w3.org/2000/svg">
<path d="M53.435 22.25L18.82 2.39833C16.947 1.31674 14.821 0.750133 12.6581 0.756073C10.4952 0.762014 8.37239 1.34029 6.50529 2.43215C4.6382 3.52402 3.09334 5.09059 2.02762 6.97273C0.961907 8.85488 0.413304 10.9855 0.437537 13.1483V52.995C0.437537 56.2452 1.72868 59.3623 4.02694 61.6606C6.3252 63.9589 9.44231 65.25 12.6925 65.25C14.8441 65.2464 16.957 64.678 18.82 63.6017L53.435 43.75C55.295 42.6735 56.8392 41.1269 57.9127 39.2652C58.9862 37.4036 59.5513 35.2923 59.5513 33.1433C59.5513 30.9943 58.9862 28.8831 57.9127 27.0214C56.8392 25.1598 55.295 23.6131 53.435 22.5367V22.25ZM49.8517 37.2642L15.2367 57.4025C14.4609 57.8422 13.5843 58.0733 12.6925 58.0733C11.8008 58.0733 10.9242 57.8422 10.1484 57.4025C9.37472 56.9558 8.7323 56.3134 8.28569 55.5397C7.83909 54.766 7.60405 53.8883 7.6042 52.995V13.005C7.60405 12.1117 7.83909 11.234 8.28569 10.4603C8.7323 9.68664 9.37472 9.04417 10.1484 8.5975C10.9268 8.16308 11.8011 7.92911 12.6925 7.91666C13.5831 7.93494 14.456 8.16854 15.2367 8.5975L49.8517 28.5925C50.6256 29.039 51.2684 29.6814 51.7152 30.4551C52.1621 31.2288 52.3974 32.1065 52.3974 33C52.3974 33.8935 52.1621 34.7712 51.7152 35.5449C51.2684 36.3186 50.6256 36.961 49.8517 37.4075V37.2642Z" fill="white"/>
</svg>
