<svg width="17" height="19" viewBox="0 0 17 19" fill="none" xmlns="http://www.w3.org/2000/svg">
<g clip-path="url(#clip0_242_27)">
<path d="M8.4999 5.18186C8.96934 5.18186 9.3499 4.7952 9.3499 4.31822C9.3499 3.84125 8.96934 3.45459 8.4999 3.45459C8.03046 3.45459 7.6499 3.84125 7.6499 4.31822C7.6499 4.7952 8.03046 5.18186 8.4999 5.18186Z" fill="black"/>
<path d="M3.3999 13.8181H13.5999V15.5454H3.3999V13.8181ZM6.7999 9.35313L9.1731 11.7661L12.5153 8.36772L13.5999 9.49994V6.04541H10.1999L11.3134 7.14654L9.17225 9.32204L6.7999 6.90904L3.3999 10.3636L4.6018 11.5848L6.7999 9.35313Z" fill="black"/>
<path d="M14.45 1.72733H11.6467C11.5625 1.60016 11.4717 1.47764 11.3747 1.36028L11.3662 1.34992C10.7415 0.611143 9.86293 0.14228 8.9097 0.0389225C8.63896 -0.0129742 8.36105 -0.0129742 8.0903 0.0389225C7.13707 0.14228 6.25854 0.611143 5.6338 1.34992L5.6253 1.36028C5.52831 1.47736 5.43752 1.59959 5.3533 1.72646V1.72733H2.55C1.87391 1.72801 1.22569 2.0012 0.747623 2.48694C0.269552 2.97268 0.000675083 3.63129 0 4.31823V16.4091C0.000675083 17.096 0.269552 17.7546 0.747623 18.2404C1.22569 18.7261 1.87391 18.9993 2.55 19H14.45C15.1261 18.9993 15.7743 18.7261 16.2524 18.2404C16.7304 17.7546 16.9993 17.096 17 16.4091V4.31823C16.9993 3.63129 16.7304 2.97268 16.2524 2.48694C15.7743 2.0012 15.1261 1.72801 14.45 1.72733ZM15.3 16.4091C15.3 16.6381 15.2104 16.8578 15.051 17.0198C14.8916 17.1817 14.6754 17.2727 14.45 17.2727H2.55C2.32457 17.2727 2.10837 17.1817 1.94896 17.0198C1.78955 16.8578 1.7 16.6381 1.7 16.4091V4.31823C1.7 4.08918 1.78955 3.86951 1.94896 3.70755C2.10837 3.54558 2.32457 3.45459 2.55 3.45459H6.4175C6.51504 2.96652 6.77566 2.52771 7.15519 2.21253C7.53472 1.89734 8.00982 1.72516 8.5 1.72516C8.99018 1.72516 9.46528 1.89734 9.84481 2.21253C10.2243 2.52771 10.485 2.96652 10.5825 3.45459H14.45C14.6754 3.45459 14.8916 3.54558 15.051 3.70755C15.2104 3.86951 15.3 4.08918 15.3 4.31823V16.4091Z" fill="black"/>
</g>
<defs>
<clipPath id="clip0_242_27">
<rect width="17" height="19" fill="white"/>
</clipPath>
</defs>
</svg>
