<svg width="17" height="17" viewBox="0 0 17 17" fill="none" xmlns="http://www.w3.org/2000/svg">
<g clip-path="url(#clip0_242_37)">
<path d="M8.50024 5.1C9.40197 5.1 10.2668 5.45821 10.9044 6.09584C11.542 6.73346 11.9002 7.59826 11.9002 8.5C11.9002 9.40174 11.542 10.2665 10.9044 10.9042C10.2668 11.5418 9.40197 11.9 8.50024 11.9C7.5985 11.9 6.7337 11.5418 6.09607 10.9042C5.45845 10.2665 5.10024 9.40174 5.10024 8.5C5.10024 7.59826 5.45845 6.73346 6.09607 6.09584C6.7337 5.45821 7.5985 5.1 8.50024 5.1ZM8.50024 6.8C8.04937 6.8 7.61697 6.97911 7.29816 7.29792C6.97934 7.61673 6.80024 8.04913 6.80024 8.5C6.80024 8.95087 6.97934 9.38327 7.29816 9.70208C7.61697 10.0209 8.04937 10.2 8.50024 10.2C8.95111 10.2 9.38351 10.0209 9.70232 9.70208C10.0211 9.38327 10.2002 8.95087 10.2002 8.5C10.2002 8.04913 10.0211 7.61673 9.70232 7.29792C9.38351 6.97911 8.95111 6.8 8.50024 6.8ZM6.80024 17C6.58774 17 6.40924 16.847 6.37524 16.643L6.06074 14.3905C5.52524 14.178 5.06624 13.889 4.62424 13.549L2.50774 14.4075C2.32074 14.4755 2.09124 14.4075 1.98924 14.2205L0.289238 11.2795C0.237214 11.1919 0.218874 11.0884 0.237647 10.9883C0.25642 10.8881 0.311021 10.7983 0.391238 10.7355L2.18474 9.3245L2.12524 8.5L2.18474 7.65L0.391238 6.2645C0.311021 6.20171 0.25642 6.11186 0.237647 6.01174C0.218874 5.91161 0.237214 5.80808 0.289238 5.7205L1.98924 2.7795C2.09124 2.5925 2.32074 2.516 2.50774 2.5925L4.62424 3.4425C5.06624 3.111 5.52524 2.822 6.06074 2.6095L6.37524 0.357C6.40924 0.153 6.58774 0 6.80024 0H10.2002C10.4127 0 10.5912 0.153 10.6252 0.357L10.9397 2.6095C11.4752 2.822 11.9342 3.111 12.3762 3.4425L14.4927 2.5925C14.6797 2.516 14.9092 2.5925 15.0112 2.7795L16.7112 5.7205C16.8217 5.9075 16.7707 6.137 16.6092 6.2645L14.8157 7.65L14.8752 8.5L14.8157 9.35L16.6092 10.7355C16.7707 10.863 16.8217 11.0925 16.7112 11.2795L15.0112 14.2205C14.9092 14.4075 14.6797 14.484 14.4927 14.4075L12.3762 13.5575C11.9342 13.889 11.4752 14.178 10.9397 14.3905L10.6252 16.643C10.5912 16.847 10.4127 17 10.2002 17H6.80024ZM7.86274 1.7L7.54824 3.9185C6.52824 4.131 5.62724 4.675 4.97274 5.4315L2.92424 4.5475L2.28674 5.6525L4.08024 6.97C3.74024 7.96167 3.74024 9.03833 4.08024 10.03L2.27824 11.356L2.91574 12.461L4.98124 11.577C5.63574 12.325 6.52824 12.869 7.53974 13.073L7.85424 15.3H9.14624L9.46074 13.0815C10.4722 12.869 11.3647 12.325 12.0192 11.577L14.0847 12.461L14.7222 11.356L12.9202 10.0385C13.2602 9.044 13.2602 7.9645 12.9202 6.97L14.7137 5.6525L14.0762 4.5475L12.0277 5.4315C11.3598 4.65827 10.4538 4.12902 9.45224 3.927L9.13774 1.7H7.86274Z" fill="black"/>
</g>
<defs>
<clipPath id="clip0_242_37">
<rect width="17" height="17" fill="white"/>
</clipPath>
</defs>
</svg>
