<svg width="74" height="74" viewBox="0 0 74 74" fill="none" xmlns="http://www.w3.org/2000/svg">
<g clip-path="url(#clip0_349_32)">
<path d="M70.1315 16.8558H37.8536L47.9302 6.7792C48.1831 6.52627 48.1831 6.1197 47.9302 5.86677L45.4122 3.34644C45.1615 3.09351 44.7527 3.09351 44.502 3.34644L31.5393 16.3092L18.5812 3.34644C18.3283 3.09351 17.9217 3.09351 17.6688 3.34644L15.1485 5.86677C14.8955 6.1197 14.8955 6.52627 15.1485 6.7792L25.2295 16.8558H3.86852C1.73221 16.8558 0 18.5901 0 20.7265V66.972C0 69.1083 1.73206 70.8427 3.86852 70.8427H70.1316C72.2679 70.8427 74.0001 69.1083 74.0001 66.972V20.7265C74 18.5901 72.2679 16.8558 70.1315 16.8558ZM55.4413 60.8746C55.4413 62.1076 54.4432 63.1059 53.2124 63.1059H9.66105C8.42805 63.1059 7.42977 62.1078 7.42977 60.8746V27.7317C7.42977 26.4988 8.42791 25.5005 9.66105 25.5005H53.2124C54.4432 25.5005 55.4413 26.4986 55.4413 27.7317V60.8746ZM68.3905 48.2462H61.8685V41.7243H68.3905V48.2462ZM64.9013 33.8427C62.8915 33.8427 61.2632 32.2122 61.2632 30.2022C61.2632 28.1922 62.8915 26.5618 64.9013 26.5618C66.9112 26.5618 68.5395 28.1922 68.5395 30.2022C68.5395 32.2122 66.9112 33.8427 64.9013 33.8427Z" fill="#868686"/>
</g>
<defs>
<clipPath id="clip0_349_32">
<rect width="74" height="74" fill="white"/>
</clipPath>
</defs>
</svg>
