<svg width="17" height="15" viewBox="0 0 17 15" fill="none" xmlns="http://www.w3.org/2000/svg">
<g clip-path="url(#clip0_242_33)">
<path d="M8.77737 13.1C8.82664 13.1 8.87592 13.0883 8.92519 13.065C8.97447 13.0417 9.01143 13.0183 9.03606 12.995L15.0969 7.255C15.2448 7.115 15.3527 6.9575 15.4207 6.7825C15.4887 6.6075 15.5224 6.4325 15.5219 6.2575C15.5219 6.07083 15.4882 5.8928 15.4207 5.7234C15.3532 5.554 15.2453 5.40537 15.0969 5.2775L11.9556 2.3025C11.8201 2.1625 11.6629 2.06053 11.4841 1.9966C11.3052 1.93267 11.1177 1.90047 10.9216 1.9C10.7368 1.9 10.552 1.9322 10.3672 1.9966C10.1825 2.061 10.0162 2.16297 9.86832 2.3025L9.66506 2.495L11.0325 3.8075C11.2172 3.97083 11.3527 4.1575 11.439 4.3675C11.5252 4.5775 11.5683 4.79917 11.5683 5.0325C11.5683 5.5225 11.3929 5.93387 11.0421 6.2666C10.6912 6.59933 10.2569 6.76547 9.73898 6.765C9.4926 6.765 9.25559 6.72417 9.02793 6.6425C8.80028 6.56083 8.59998 6.43833 8.42702 6.275L7.04041 4.98L3.80672 8.0425C3.76976 8.0775 3.74217 8.11553 3.72393 8.1566C3.7057 8.19767 3.69634 8.2413 3.69585 8.2875C3.69585 8.38083 3.7328 8.46553 3.80672 8.5416C3.88063 8.61767 3.96686 8.65547 4.06541 8.655C4.11469 8.655 4.16396 8.64333 4.21324 8.62C4.26251 8.59667 4.29947 8.57333 4.32411 8.55L6.83715 6.17L7.87193 7.15L5.37737 9.53C5.34041 9.565 5.31282 9.60303 5.29459 9.6441C5.27635 9.68517 5.26699 9.7288 5.2665 9.775C5.2665 9.86833 5.30346 9.95 5.37737 10.02C5.45128 10.09 5.53751 10.125 5.63606 10.125C5.68534 10.125 5.73461 10.1133 5.78389 10.09C5.83317 10.0667 5.87012 10.0433 5.89476 10.02L8.4078 7.6575L9.44259 8.6375L6.94802 11.0175C6.91106 11.0408 6.88347 11.0758 6.86524 11.1225C6.84701 11.1692 6.83764 11.2158 6.83715 11.2625C6.83715 11.3558 6.87411 11.4375 6.94802 11.5075C7.02193 11.5775 7.10817 11.6125 7.20672 11.6125C7.25599 11.6125 7.30231 11.6036 7.34567 11.5859C7.38904 11.5682 7.42895 11.542 7.46541 11.5075L9.97846 9.145L11.0132 10.125L8.50019 12.505C8.46324 12.54 8.43564 12.5778 8.41741 12.6184C8.39918 12.659 8.38982 12.7029 8.38933 12.75C8.38933 12.8433 8.42948 12.925 8.5098 12.995C8.59012 13.065 8.67931 13.1 8.77737 13.1ZM8.75889 14.5C8.30309 14.5 7.89977 14.3572 7.54893 14.0716C7.19809 13.786 6.99163 13.4271 6.92954 12.995C6.5107 12.9367 6.15961 12.7733 5.87628 12.505C5.59295 12.2367 5.42048 11.9042 5.35889 11.5075C4.94005 11.4492 4.59217 11.283 4.31524 11.0091C4.03831 10.7352 3.8688 10.4055 3.80672 10.02C3.3386 9.96167 2.95672 9.76917 2.66106 9.4425C2.36541 9.11583 2.21759 8.73083 2.21759 8.2875C2.21759 8.05417 2.2639 7.8297 2.35654 7.6141C2.44918 7.3985 2.58148 7.2088 2.75346 7.045L7.04041 3.0025L9.46106 5.295C9.4857 5.33 9.52266 5.35637 9.57193 5.3741C9.62121 5.39183 9.67048 5.40047 9.71976 5.4C9.83063 5.4 9.92302 5.36803 9.99693 5.3041C10.0708 5.24017 10.1078 5.15547 10.1078 5.05C10.1078 5.00333 10.0984 4.95667 10.0797 4.91C10.061 4.86333 10.0334 4.82833 9.99693 4.805L7.35454 2.3025C7.21904 2.1625 7.06209 2.06053 6.88372 1.9966C6.70534 1.93267 6.51735 1.90047 6.31976 1.9C6.13498 1.9 5.95019 1.9322 5.76541 1.9966C5.58063 2.061 5.41433 2.16297 5.2665 2.3025L2.66106 4.7875C2.55019 4.8925 2.4578 5.015 2.38389 5.155C2.30998 5.295 2.2607 5.435 2.23606 5.575C2.21143 5.715 2.21143 5.85803 2.23606 6.0041C2.2607 6.15017 2.30998 6.28713 2.38389 6.415L1.31215 7.43C1.10273 7.16167 0.948745 6.8672 0.850194 6.5466C0.751644 6.226 0.714687 5.90213 0.739325 5.575C0.763963 5.24787 0.850194 4.93007 0.998021 4.6216C1.14585 4.31313 1.34911 4.03593 1.6078 3.79L4.21324 1.3225C4.50889 1.05417 4.83854 0.85 5.20219 0.71C5.56585 0.57 5.93837 0.5 6.31976 0.5C6.70115 0.5 7.07392 0.57 7.43806 0.71C7.80221 0.85 8.12546 1.05417 8.4078 1.3225L8.61106 1.515L8.81433 1.3225C9.10998 1.05417 9.43963 0.85 9.80328 0.71C10.1669 0.57 10.5395 0.5 10.9208 0.5C11.3022 0.5 11.675 0.57 12.0392 0.71C12.4033 0.85 12.7265 1.05417 13.0089 1.3225L16.1317 4.28C16.4151 4.54833 16.6306 4.8575 16.7785 5.2075C16.9263 5.5575 17.0002 5.91333 17.0002 6.275C17.0002 6.63667 16.9263 6.9897 16.7785 7.3341C16.6306 7.6785 16.4151 7.98463 16.1317 8.2525L10.0708 13.975C9.89838 14.1383 9.69832 14.2667 9.47067 14.36C9.24302 14.4533 9.00576 14.5 8.75889 14.5Z" fill="black"/>
</g>
<defs>
<clipPath id="clip0_242_33">
<rect width="17" height="14" fill="white" transform="translate(0 0.5)"/>
</clipPath>
</defs>
</svg>
