<svg width="74" height="75" viewBox="0 0 74 75" fill="none" xmlns="http://www.w3.org/2000/svg">
<path d="M69.3077 36.8113H6.53845V70.2811C6.53845 72.335 8.19157 74 10.2308 74H69.3077C71.3469 74 73 72.335 73 70.2811V40.5301C73 38.4762 71.3469 36.8113 69.3077 36.8113Z" stroke="#CBCBCB" stroke-width="1.5" stroke-linejoin="round"/>
<path d="M1 21.9989L59.98 1.21653C61.8962 0.541371 64.0151 1.49782 64.7125 3.35279L67.2379 10.0703C67.9353 11.9253 66.9473 13.9764 65.0311 14.6516L6.05106 35.434L1 21.9989Z" stroke="#CBCBCB" stroke-width="1.5" stroke-linejoin="round"/>
<path d="M53.6154 3.75464L52.2308 18.9056" stroke="#CBCBCB" stroke-width="1.5"/>
<path d="M39.7692 7.88672L37 24.415" stroke="#CBCBCB" stroke-width="1.5"/>
<path d="M25.9231 13.3962L23.1538 29.9245" stroke="#CBCBCB" stroke-width="1.5"/>
<path d="M12.0769 18.9058L9.30768 34.0567" stroke="#CBCBCB" stroke-width="1.5"/>
</svg>
